<?xml version="1.0" encoding="utf-8"?>
<svg version="1.1" xmlns="http://www.w3.org/2000/svg" xmlns:xlink="http://www.w3.org/1999/xlink" x="0px" y="0px" viewBox="0 0 1000 1000" enable-background="new 0 0 1000 1000" xml:space="preserve" fill="#FFFFFF">
<g>
    <path d="M319.5,483.9c42.7,0,77.4-34.6,77.4-77.4s-34.6-77.4-77.4-77.4s-77.4,34.6-77.4,77.4S276.7,483.9,319.5,483.9z M706.3,483.9c42.7,0,77.4-34.6,77.4-77.4s-34.6-77.4-77.4-77.4c-42.7,0-77.4,34.6-77.4,77.4S663.6,483.9,706.3,483.9z M292.5,639.8c11.1,12.2,30.8,29.4,58.5,46.4c110.2,67.6,242.3,67.6,381.9-42.9c13.3-10.5,15.5-29.8,5-43c-10.5-13.3-29.8-15.5-43-5c-118.2,93.6-222.4,93.6-311.9,38.7c-13-8-24.5-16.6-34.3-25.1c-5.6-4.9-9.3-8.5-10.8-10.2c-11.4-12.5-30.7-13.5-43.3-2.1C282,607.9,281.1,627.3,292.5,639.8z"/>
    <path d="M500,928.8L500,928.8c236.8,0,428.8-192,428.8-428.8c0-236.8-192-428.8-428.8-428.8c-236.8,0-428.8,192-428.8,428.8C71.3,736.8,263.2,928.8,500,928.8L500,928.8z M500,990L500,990C229.4,990,10,770.6,10,500C10,229.4,229.4,10,500,10c270.6,0,490,219.4,490,490C990,770.6,770.6,990,500,990L500,990z"/>
</g>
</svg>