<?xml version="1.0" encoding="utf-8"?>
<svg version="1.1" xmlns="http://www.w3.org/2000/svg" xmlns:xlink="http://www.w3.org/1999/xlink" viewBox="0 0 511.999 511.999" xml:space="preserve" fill="#FFFFFF">
	<g>
		<path d="M83.578,167.256H16.716C7.524,167.256,0,174.742,0,183.971v300.881c0,9.225,7.491,16.713,16.716,16.713h66.862
			c9.225,0,16.716-7.489,16.716-16.713V183.971C100.294,174.742,92.769,167.256,83.578,167.256z"/>
	</g>
	<g>
		<path d="M470.266,167.256c-2.692-0.456-128.739,0-128.739,0l17.606-48.032c12.148-33.174,4.283-83.827-29.424-101.835
			c-10.975-5.864-26.309-8.809-38.672-5.697c-7.09,1.784-13.321,6.478-17.035,12.767c-4.271,7.233-3.83,15.676-5.351,23.696
			c-3.857,20.342-13.469,39.683-28.354,54.2c-25.952,25.311-106.571,98.331-106.571,98.331v267.45h278.593
			c37.592,0.022,62.228-41.958,43.687-74.749c22.101-14.155,29.66-43.97,16.716-66.862c22.102-14.155,29.66-43.97,16.716-66.862
			C527.572,235.24,514.823,174.792,470.266,167.256z"/>
	</g>
</svg>
